<svg width="169" height="31" viewBox="0 0 169 31" fill="none" xmlns="http://www.w3.org/2000/svg">
<path fill-rule="evenodd" clip-rule="evenodd" d="M159.07 2.67081H147.139C142.794 2.67081 140.341 5.09244 140.328 9.36198V21.0872C140.328 25.3555 142.794 27.7784 147.139 27.7784H159.07C163.414 27.7784 165.879 25.3555 165.879 21.0872V9.36198C165.879 5.09244 163.414 2.67081 159.07 2.67081ZM153.041 22.5812C152.49 22.5812 152.031 22.1794 151.98 21.6396V8.84729C151.929 8.45812 152.12 8.0677 152.465 7.85554C152.824 7.64212 153.258 7.64212 153.602 7.85554C153.948 8.0677 154.138 8.45812 154.101 8.84729V21.6396C154.036 22.1794 153.577 22.5812 153.041 22.5812ZM147.163 22.5811C146.626 22.5811 146.168 22.1794 146.102 21.6396V17.5219C146.065 17.119 146.256 16.7436 146.602 16.5302C146.946 16.3168 147.38 16.3168 147.738 16.5302C148.084 16.7436 148.274 17.119 148.223 17.5219V21.6396C148.172 22.1794 147.713 22.5811 147.163 22.5811ZM157.934 21.6396C157.985 22.1794 158.443 22.5811 158.994 22.5811C159.543 22.5811 160.003 22.1794 160.053 21.6396V12.9649C160.092 12.5745 159.901 12.1866 159.555 11.9732C159.211 11.7598 158.776 11.7598 158.431 11.9732C158.087 12.1866 157.894 12.5745 157.934 12.9649V21.6396Z" fill="#555555"/>
<path d="M20.5493 17.3614C20.5493 18.2248 20.3825 18.9934 20.0489 19.6672C19.7153 20.341 19.2149 20.8708 18.5477 21.2567C17.8804 21.6427 17.0464 21.8357 16.0456 21.8357C14.685 21.8357 13.4781 21.6329 12.425 21.2273L12.788 18.8822C13.8085 19.2158 14.8125 19.3827 15.8003 19.3827C16.546 19.3827 17.2198 19.3009 17.8216 19.1374C18.4299 18.9673 18.8355 18.7449 19.0383 18.4701C18.7504 17.3516 18.322 16.3638 17.7529 15.5069C17.1903 14.6435 16.4512 13.8225 15.5354 13.0441L16.9581 10.9149C17.8216 11.7849 18.5149 12.5829 19.0383 13.309C19.5681 14.0286 19.9508 14.7154 20.1863 15.3695C20.4283 16.0237 20.5493 16.6876 20.5493 17.3614ZM26.672 21.6198C26.672 22.7318 26.4692 23.7098 26.0637 24.5536C25.6581 25.404 25.1217 26.0646 24.4545 26.5356C23.7873 27.0131 23.0579 27.2519 22.2664 27.2519C21.8281 27.2519 21.3931 27.2028 20.9614 27.1047C20.5297 27.0131 20.062 26.8463 19.5583 26.6043L20.1176 25.1619C21.3146 25.0703 22.3809 24.825 23.3163 24.426C24.2582 24.027 24.9418 23.3631 25.367 22.4342C25.1969 21.6296 24.9222 20.8054 24.5428 19.9616C24.1699 19.1177 23.6466 18.1889 22.9729 17.175L24.6311 15.1341C25.3179 16.2853 25.8282 17.3679 26.1618 18.3818C26.5019 19.3957 26.672 20.4751 26.672 21.6198ZM32.1177 13.2796C32.7718 13.2796 33.3801 13.5347 33.9427 14.0449C34.5053 14.5551 34.9795 15.2583 35.3654 16.1545C35.7579 17.0507 36.0196 18.0777 36.1504 19.2355H37.2886V21.6885H36.2289C36.17 22.807 35.9051 23.785 35.4341 24.6223C34.9631 25.4661 34.3188 26.1202 33.5012 26.5847C32.69 27.0556 31.7383 27.2911 30.6459 27.2911C30.1749 27.2911 29.7105 27.2388 29.2526 27.1341C28.8012 27.0295 28.3171 26.8529 27.8004 26.6043L28.3597 25.1619C30.1585 25.1619 31.5845 24.9624 32.6377 24.5634C33.6974 24.1644 34.4954 23.5201 35.0318 22.6304C35.0253 22.4211 35.0155 22.2281 35.0024 22.0515C34.9893 21.8814 34.9664 21.6917 34.9337 21.4824C33.9525 21.7179 32.8961 21.8357 31.7644 21.8357C30.7178 21.8357 29.9427 21.6296 29.439 21.2175C28.9418 20.7989 28.6933 20.1055 28.6933 19.1374C28.6933 18.3786 28.7783 17.6492 28.9484 16.9493C29.1185 16.2494 29.3572 15.6247 29.6647 15.0752C29.9721 14.5192 30.3352 14.0809 30.7538 13.7604C31.1724 13.4398 31.6271 13.2796 32.1177 13.2796ZM31.7056 15.4186C31.3916 15.4186 31.1038 15.5527 30.8421 15.8209C30.5805 16.0825 30.3711 16.4292 30.2141 16.861C30.0637 17.2862 29.9885 17.7408 29.9885 18.2248C29.9885 18.7481 30.1487 19.1014 30.4692 19.2845C30.7898 19.4677 31.3131 19.5593 32.0392 19.5593C32.4251 19.5593 32.8372 19.5495 33.2755 19.5298C33.7203 19.5037 34.1422 19.4644 34.5412 19.4121C34.3188 18.1692 33.946 17.1946 33.4227 16.4881C32.9059 15.7751 32.3335 15.4186 31.7056 15.4186ZM39.7416 24.3966C40.0425 24.5143 40.3401 24.6811 40.6345 24.897C40.9354 25.1129 41.2363 25.3713 41.5372 25.6722C41.3344 25.9665 41.1251 26.2576 40.9092 26.5454C40.6999 26.8398 40.484 27.1374 40.2616 27.4383C39.7383 26.9673 39.1496 26.552 38.4955 26.1922C38.7113 25.8847 38.9207 25.5838 39.1234 25.2895C39.3328 25.0017 39.5388 24.704 39.7416 24.3966ZM36.7097 21.6885C36.4742 21.6885 36.3565 21.4595 36.3565 21.0016V19.9223C36.3565 19.4644 36.4742 19.2355 36.7097 19.2355H38.5347C39.1692 19.2355 39.686 19.1766 40.085 19.0589C40.484 18.9411 40.8013 18.7351 41.0368 18.4407C41.2788 18.1398 41.4751 17.7179 41.6255 17.175C41.776 16.632 41.9231 15.9386 42.067 15.0948L43.5781 15.2812C43.5323 15.641 43.4963 15.9746 43.4702 16.2821C43.444 16.5895 43.4309 16.8708 43.4309 17.1259C43.4309 17.7735 43.6173 18.287 43.9902 18.6664C44.3696 19.0458 44.9845 19.2355 45.8349 19.2355H45.8447V21.6885H45.8349C44.8537 21.6885 44.0916 21.4792 43.5487 21.0605C43.0123 20.6419 42.6231 19.9812 42.381 19.0785C41.7531 20.8185 40.4742 21.6885 38.5445 21.6885H36.7097ZM57.3149 21.8357C56.5038 21.8357 55.8693 21.6067 55.4114 21.1488C54.9535 20.6909 54.6853 20.0302 54.6068 19.1668C54.404 20.0106 54.0312 20.668 53.4882 21.139C52.9518 21.6034 52.3337 21.8357 51.6338 21.8357C50.9273 21.8357 50.3484 21.5969 49.897 21.1194C49.4457 20.6353 49.1742 19.9419 49.0826 19.0392C48.7686 19.9485 48.3271 20.619 47.758 21.0507C47.1955 21.4759 46.5609 21.6885 45.8545 21.6885C45.619 21.6885 45.5012 21.4595 45.5012 21.0016V19.9223C45.5012 19.4644 45.619 19.2355 45.8545 19.2355C46.4432 19.2355 46.9174 19.1112 47.2772 18.8626C47.637 18.614 47.9314 18.2085 48.1603 17.6459C48.3893 17.0768 48.5888 16.3115 48.7588 15.3499L50.2404 15.5462C50.1947 15.9125 50.1554 16.2984 50.1227 16.704C50.0965 17.1095 50.0835 17.4268 50.0835 17.6557C50.0835 18.2902 50.2012 18.7449 50.4367 19.0196C50.6787 19.2943 51.1006 19.4317 51.7024 19.4317C52.1538 19.4317 52.5168 19.3336 52.7916 19.1374C53.0663 18.9411 53.2953 18.5944 53.4784 18.0973C53.6616 17.6001 53.8382 16.9002 54.0083 15.9975H55.5487C55.516 16.2265 55.4833 16.5372 55.4506 16.9297C55.4245 17.3221 55.4114 17.6427 55.4114 17.8912C55.4114 18.4865 55.5389 18.8921 55.794 19.1079C56.0492 19.3238 56.5332 19.4317 57.2462 19.4317C57.7434 19.4317 58.1195 19.3827 58.3746 19.2845C58.6297 19.1799 58.8717 18.9869 59.1007 18.7056C58.983 18.1038 58.826 17.5216 58.6297 16.9591C58.4335 16.3965 58.2013 15.87 57.9331 15.3794L59.552 13.7211C59.8006 14.2771 60.0067 14.9051 60.1702 15.605C60.3337 16.2984 60.4155 17.0768 60.4155 17.9403C60.4155 18.3851 60.3501 18.8332 60.2193 19.2845C60.0884 19.7293 59.8497 20.2919 59.503 20.9722C59.1432 21.2731 58.7965 21.4922 58.4629 21.6296C58.1358 21.767 57.7532 21.8357 57.3149 21.8357ZM52.8995 9.22722C52.9845 8.69083 53.0957 8.0694 53.2331 7.36294C54.7769 7.42181 55.8398 7.77832 56.422 8.43245C57.0042 9.08004 57.171 10.1299 56.9224 11.5821L56.9126 11.5723C56.8799 11.9909 56.8145 12.3442 56.7164 12.632H55.6665C54.5414 12.632 53.1513 12.6811 51.4964 12.7792L51.0745 12.3965C51.1726 12.1218 51.2707 11.8536 51.3688 11.5919C51.4735 11.3303 51.5749 11.0686 51.673 10.807C53.4653 10.7088 54.6003 10.6598 55.0778 10.6598H55.9216C55.9543 10.3785 55.9805 10.1103 56.0001 9.85519C55.4768 9.53467 54.4433 9.32534 52.8995 9.22722ZM64.3894 6.1855C64.5071 6.79384 64.6216 7.51993 64.7328 8.36377C64.844 9.2076 64.9421 10.0972 65.0271 11.0326C65.1122 11.9615 65.1776 12.8675 65.2234 13.7506C65.2757 14.6336 65.3019 15.4186 65.3019 16.1054C65.3019 17.61 65.1645 18.8332 64.8898 19.7751C64.6216 20.7171 64.18 21.4105 63.5652 21.8553L62.5349 21.2273C62.7966 20.6648 62.9863 20.0662 63.104 19.4317C63.2217 18.7907 63.2806 17.9697 63.2806 16.9689C63.2806 16.0793 63.2414 15.1112 63.1629 14.0645C63.0844 13.0179 62.9732 11.955 62.8293 10.8756C62.6853 9.78978 62.512 8.75625 62.3092 7.77504L64.3894 6.1855ZM74.9863 17.3614C74.9863 18.2248 74.8195 18.9934 74.4859 19.6672C74.1523 20.341 73.6519 20.8708 72.9847 21.2567C72.3175 21.6427 71.4834 21.8357 70.4826 21.8357C69.122 21.8357 67.9151 21.6329 66.862 21.2273L67.225 18.8822C68.2455 19.2158 69.2496 19.3827 70.2373 19.3827C70.983 19.3827 71.6568 19.3009 72.2586 19.1374C72.8669 18.9673 73.2725 18.7449 73.4753 18.4701C73.1875 17.3516 72.759 16.3638 72.1899 15.5069C71.6274 14.6435 70.8882 13.8225 69.9724 13.0441L71.3951 10.9149C72.2586 11.7849 72.952 12.5829 73.4753 13.309C74.0051 14.0286 74.3878 14.7154 74.6233 15.3695C74.8653 16.0237 74.9863 16.6876 74.9863 17.3614ZM94.3553 17.9795C93.5768 19.2224 92.4485 20.1774 90.9701 20.8446C89.4918 21.5053 87.7616 21.8357 85.7796 21.8357C83.7125 21.8357 82.2047 21.4759 81.2562 20.7563C80.3143 20.0302 79.8433 18.879 79.8433 17.3025C79.8433 16.825 79.8825 16.2722 79.961 15.6443C80.0461 15.0098 80.1605 14.3393 80.3045 13.6328L81.8351 13.9468C81.6716 14.5028 81.5342 15.0556 81.423 15.605C81.3118 16.148 81.2562 16.5797 81.2562 16.9002C81.2562 17.7702 81.6454 18.4015 82.4238 18.7939C83.2023 19.1864 84.4288 19.3827 86.1034 19.3827C87.6994 19.3827 89.047 19.2289 90.1459 18.9215C91.2448 18.6075 92.141 18.1169 92.8344 17.4497C93.5278 16.7759 94.0609 15.9059 94.4338 14.8397L95.8074 15.1144C95.7224 15.5527 95.657 15.9223 95.6112 16.2232C95.5654 16.5241 95.5425 16.789 95.5425 17.018C95.5425 17.7113 95.7289 18.2543 96.1018 18.6468C96.4747 19.0392 96.9881 19.2355 97.6423 19.2355H97.6521V21.6885H97.6423C96.7527 21.6885 96.0069 21.3516 95.4051 20.6778C94.8099 20.0041 94.4599 19.1046 94.3553 17.9795ZM89.3315 13.3777H88.0265C87.3135 13.3777 86.1295 13.4268 84.4746 13.5249L84.0428 13.1422C84.1475 12.8675 84.2489 12.5993 84.347 12.3376C84.4451 12.076 84.5465 11.8143 84.6512 11.5527C85.1287 11.5265 85.6356 11.5036 86.172 11.484C86.7084 11.4644 87.1958 11.448 87.634 11.4349C88.0788 11.4153 88.4746 11.4055 88.8213 11.4055C89.5539 11.4055 89.9202 11.6933 89.9202 12.2689C89.9202 12.6222 89.845 12.995 89.6946 13.3875C89.6095 13.381 89.4885 13.3777 89.3315 13.3777ZM108.965 21.8357C108.226 21.8357 107.634 21.61 107.189 21.1586C106.751 20.7007 106.493 20.0368 106.414 19.1668C106.211 20.0106 105.839 20.668 105.296 21.139C104.753 21.6034 104.135 21.8357 103.441 21.8357C102.728 21.8357 102.146 21.5969 101.695 21.1194C101.25 20.6353 100.982 19.9419 100.89 19.0392C100.576 19.9485 100.135 20.619 99.5654 21.0507C99.0029 21.4759 98.3684 21.6885 97.6619 21.6885C97.4264 21.6885 97.3087 21.4595 97.3087 21.0016V19.9223C97.3087 19.4644 97.4264 19.2355 97.6619 19.2355C98.2506 19.2355 98.7249 19.1112 99.0846 18.8626C99.4444 18.614 99.7388 18.2085 99.9677 17.6459C100.197 17.0768 100.396 16.3115 100.566 15.3499L102.048 15.5462C102.002 15.9125 101.963 16.2984 101.93 16.704C101.904 17.1095 101.891 17.4268 101.891 17.6557C101.891 18.2902 102.009 18.7449 102.244 19.0196C102.486 19.2943 102.908 19.4317 103.51 19.4317C103.968 19.4317 104.331 19.3369 104.599 19.1472C104.874 18.9509 105.099 18.6042 105.276 18.1071C105.459 17.61 105.639 16.9068 105.816 15.9975H107.356C107.323 16.2199 107.291 16.5306 107.258 16.9297C107.232 17.3221 107.219 17.6427 107.219 17.8912C107.219 18.4865 107.333 18.8921 107.562 19.1079C107.798 19.3238 108.272 19.4317 108.985 19.4317C109.626 19.4317 110.045 19.3303 110.241 19.1275C110.444 18.9182 110.545 18.614 110.545 18.215C110.545 17.888 110.509 17.4464 110.437 16.8904C110.365 16.3278 110.264 15.7784 110.133 15.242L111.772 14.8004C111.948 15.834 112.141 16.6778 112.35 17.3319C112.566 17.9861 112.838 18.4669 113.165 18.7743C113.498 19.0818 113.93 19.2355 114.46 19.2355H114.607V21.6885H114.401C113.649 21.6885 113.037 21.4563 112.566 20.9918C112.095 20.5274 111.719 19.8733 111.438 19.0294C111.373 19.9779 111.111 20.6844 110.653 21.1488C110.195 21.6067 109.633 21.8357 108.965 21.8357ZM117.904 26.4669H116.599C115.886 26.4669 114.702 26.516 113.047 26.6141L112.615 26.2314C112.72 25.9567 112.821 25.6885 112.92 25.4269C113.018 25.1652 113.119 24.9035 113.224 24.6419C113.701 24.6157 114.208 24.5928 114.745 24.5732C115.281 24.5536 115.768 24.534 116.207 24.5143C116.651 24.5013 117.047 24.4947 117.394 24.4947C118.126 24.4947 118.493 24.7825 118.493 25.3582C118.493 25.7114 118.418 26.0843 118.267 26.4767C118.182 26.4702 118.061 26.4669 117.904 26.4669ZM114.617 21.6885C114.382 21.6885 114.264 21.4595 114.264 21.0016V19.9223C114.264 19.4644 114.382 19.2355 114.617 19.2355C115.252 19.2355 115.765 19.1766 116.158 19.0589C116.557 18.9411 116.877 18.7351 117.119 18.4407C117.361 18.1398 117.557 17.7179 117.708 17.175C117.858 16.632 118.005 15.9386 118.149 15.0948L119.66 15.2812C119.615 15.641 119.579 15.9779 119.552 16.2919C119.526 16.6059 119.513 16.8904 119.513 17.1455C119.513 17.78 119.703 18.287 120.082 18.6664C120.468 19.0458 121.08 19.2355 121.917 19.2355H121.927V21.6885H121.917C120.936 21.6885 120.174 21.4792 119.631 21.0605C119.095 20.6419 118.705 19.9812 118.463 19.0785C118.149 19.9681 117.672 20.6255 117.031 21.0507C116.39 21.4759 115.585 21.6885 114.617 21.6885ZM125.626 6.23456C125.822 7.14381 125.983 8.13155 126.107 9.19779C126.238 10.264 126.333 11.3368 126.391 12.4161C126.457 13.4954 126.49 14.5126 126.49 15.4677C126.49 15.7424 126.48 16.161 126.46 16.7236C126.441 17.2796 126.414 17.8749 126.382 18.5094C126.349 19.1439 126.313 19.7163 126.274 20.2265C125.829 20.704 125.227 21.067 124.468 21.3156C123.71 21.5642 122.866 21.6885 121.937 21.6885C121.701 21.6885 121.584 21.4595 121.584 21.0016V19.9223C121.584 19.4644 121.701 19.2355 121.937 19.2355C122.414 19.2355 122.885 19.2093 123.35 19.157C123.821 19.0981 124.223 18.9967 124.557 18.8528C124.557 17.5642 124.524 16.2494 124.459 14.9084C124.4 13.5674 124.295 12.2722 124.145 11.0228C124.001 9.76688 123.801 8.62542 123.546 7.59843L125.626 6.23456Z" fill="#798894"/>
</svg>
