<svg width="30" height="29" viewBox="0 0 30 29" fill="none" xmlns="http://www.w3.org/2000/svg">
<path fill-rule="evenodd" clip-rule="evenodd" d="M12.6523 13.6264H9.32094C8.81581 13.6264 8.41893 13.2088 8.41893 12.7052C8.41893 12.1893 8.81581 11.784 9.32094 11.784H12.6523C13.1574 11.784 13.5543 12.1893 13.5543 12.7052C13.5543 13.2088 13.1574 13.6264 12.6523 13.6264ZM5.36414 7.24052C4.63051 7.24052 4.14944 7.49847 3.66838 8.06348C3.18731 8.62849 3.10312 9.43917 3.21136 10.1749L4.3539 18.2325C4.57038 19.7814 5.86926 20.9225 7.39665 20.9225H20.5178C22.1173 20.9225 23.4403 19.6708 23.5726 18.0495L24.679 4.65988L26.495 4.34053C26.9761 4.25455 27.3129 3.77551 27.2287 3.2842C27.1445 2.78183 26.6754 2.44896 26.1824 2.52388L23.314 2.96484C22.9051 3.03977 22.6044 3.38246 22.5683 3.80008L22.3398 6.55145C22.3037 6.94573 21.991 7.24052 21.6062 7.24052H5.36414ZM20.7104 22.8638C21.7207 22.8638 22.5385 23.699 22.5385 24.7308C22.5385 25.7503 21.7207 26.5855 20.7104 26.5855C19.7122 26.5855 18.8944 25.7503 18.8944 24.7308C18.8944 23.699 19.7122 22.8638 20.7104 22.8638ZM7.1804 22.8638C8.19064 22.8638 9.00846 23.699 9.00846 24.7308C9.00846 25.7503 8.19064 26.5855 7.1804 26.5855C6.18218 26.5855 5.36437 25.7503 5.36437 24.7308C5.36437 23.699 6.18218 22.8638 7.1804 22.8638Z" fill="#555555"/>
</svg>
