<svg width="26" height="28" viewBox="0 0 26 28" fill="none" xmlns="http://www.w3.org/2000/svg">
<path d="M1.68886 4.04401C1.68886 2.65674 2.81346 1.53214 4.20073 1.53214H16.5C16.6665 1.53214 16.8263 1.5983 16.944 1.71606L24.1118 8.88383C24.2296 9.0016 24.2957 9.16132 24.2957 9.32787V24.139C24.2957 25.5263 23.1711 26.6509 21.7839 26.6509H4.20073C2.81346 26.6509 1.68886 25.5263 1.68886 24.139V4.04401Z" fill="#555555"/>
<path fill-rule="evenodd" clip-rule="evenodd" d="M4.20068 2.47409C3.33363 2.47409 2.63076 3.17696 2.63076 4.04401V24.139C2.63076 25.006 3.33363 25.7089 4.20068 25.7089H21.7838C22.6508 25.7089 23.3537 25.006 23.3537 24.139V9.45793L16.3699 2.47409H4.20068ZM0.746849 4.04401C0.746849 2.13651 2.29318 0.590179 4.20068 0.590179H16.4999C16.9163 0.590179 17.3156 0.755582 17.61 1.05L24.7778 8.21777C25.0722 8.51219 25.2376 8.9115 25.2376 9.32787V24.139C25.2376 26.0465 23.6913 27.5928 21.7838 27.5928H4.20068C2.29318 27.5928 0.746849 26.0465 0.746849 24.139V4.04401Z" fill="#555555"/>
<path d="M24.0813 8.85336L16.9745 1.74654C16.8954 1.66742 16.7601 1.72346 16.7601 1.83535V8.94217C16.7601 9.01153 16.8163 9.06776 16.8857 9.06776H23.9925C24.1044 9.06776 24.1604 8.93248 24.0813 8.85336Z" fill="#555555"/>
<path fill-rule="evenodd" clip-rule="evenodd" d="M15.8182 1.83534C15.8182 0.884259 16.9681 0.407956 17.6406 1.08047L24.7474 8.18729C25.4199 8.85981 24.9436 10.0097 23.9925 10.0097H16.8857C16.2961 10.0097 15.8182 9.53175 15.8182 8.94216V1.83534ZM17.7021 3.80621V8.1258H22.0217L17.7021 3.80621Z" fill="#555555"/>
<path fill-rule="evenodd" clip-rule="evenodd" d="M7.02659 14.0915C7.02659 13.5713 7.44832 13.1496 7.96854 13.1496H18.016C18.5363 13.1496 18.958 13.5713 18.958 14.0915C18.958 14.6117 18.5363 15.0335 18.016 15.0335H7.96854C7.44832 15.0335 7.02659 14.6117 7.02659 14.0915Z" fill="#1D201F"/>
<path fill-rule="evenodd" clip-rule="evenodd" d="M7.02659 19.1153C7.02659 18.595 7.44832 18.1733 7.96854 18.1733H18.016C18.5363 18.1733 18.958 18.595 18.958 19.1153C18.958 19.6355 18.5363 20.0572 18.016 20.0572H7.96854C7.44832 20.0572 7.02659 19.6355 7.02659 19.1153Z" fill="#1D201F"/>
</svg>
