<svg width="30" height="29" viewBox="0 0 30 29" fill="none" xmlns="http://www.w3.org/2000/svg">
<path fill-rule="evenodd" clip-rule="evenodd" d="M8.09872 10.1339H3.00613C3.00613 6.04501 5.45613 3.65634 9.60724 3.65634H20.4771C24.6283 3.65634 27.0783 6.04501 27.0783 10.0818V18.8958C27.0783 22.9326 24.6283 25.3213 20.4771 25.3213H9.60724C5.45613 25.3213 3.00613 22.9326 3.00613 18.8958V18.5203H8.09872C10.4622 18.5203 12.3782 16.6523 12.3782 14.348C12.3782 12.0437 10.4622 10.1756 8.09872 10.1756V10.1339ZM8.09893 11.928H3.90503C3.4087 11.928 3.00634 12.3203 3.00634 12.8042V15.85C3.01212 16.3316 3.41111 16.7206 3.90503 16.7262H8.00264C9.19916 16.7419 10.2454 15.9432 10.5168 14.8069C10.6528 14.1016 10.462 13.3737 9.9956 12.8184C9.52923 12.2632 8.83499 11.9372 8.09893 11.928ZM7.91702 15.1303H7.52117C7.01302 15.1303 6.60108 14.7287 6.60108 14.2333C6.60108 13.7378 7.01302 13.3362 7.52117 13.3362H7.91702C8.16006 13.3334 8.39412 13.4256 8.56699 13.5922C8.73985 13.7587 8.83713 13.9859 8.83711 14.2228C8.83715 14.72 8.4269 15.1246 7.91702 15.1303ZM21.3757 10.1339H14.582C14.0738 10.1339 13.6619 9.73229 13.6619 9.23686C13.6619 8.74143 14.0738 8.33981 14.582 8.33981H21.3757C21.8797 8.33978 22.2899 8.73508 22.2958 9.22643C22.2958 9.72358 21.8856 10.1282 21.3757 10.1339Z" fill="white"/>
</svg>
